# xmcd
#
# Track frame offsets: 
#        182
#        17957
#        29567
#        46882
#        66975
#        82707
#        96207
#        112185
#        123847
#        139615
#
# Disc length: 2037 seconds
#
# Revision: 5
# Processed by: cddbd v1.5.2PL0 Copyright (c) Steve Scherf et al.
# Submitted via: ExactAudioCopyFreeDBPlugin 1.0
#
DISCID=8207f30a
DTITLE=Various Artist - The Greatest Hits Of Country Dance
DYEAR=1997
DGENRE=Country
TTITLE0=Tim McGraw - I Like It, I Love It
TTITLE1=LeAnn Rimes - Cowboy's Sweatheart
TTITLE2=Wynonna - Tell Me Why
TTITLE3=Smokin' Armadillos - I'm A Cowboy
TTITLE4=Jo Dee Messina - Heads Carolina, Tails California
TTITLE5=Jeff Carson - Betty's Talkin' Judo
TTITLE6=Hank Williams, Jr - Hog Wild
TTITLE7=Junior Brown - Highway Patrol
TTITLE8=Sawyer Brown - Wantin' And Havin' It All
TTITLE9=Hal Ketchum - Small Town Saturday Night
EXTD=
EXTT0=
EXTT1=
EXTT2=
EXTT3=
EXTT4=
EXTT5=
EXTT6=
EXTT7=
EXTT8=
EXTT9=
PLAYORDER=
